<svg xmlns="http://www.w3.org/2000/svg" width="134" height="63" viewBox="0 0 134 63">
    <g fill="#FFF" fill-rule="nonzero">
        <path d="M51.49 52.744l.029-.04c.025-.03.048-.062.071-.095.023-.033.023-.037.034-.056l.052-.091.027-.056c.015-.034.03-.067.042-.102l.021-.052c.012-.037.023-.075.031-.114a1.268 1.268 0 0 0 .036-.176v-.037c.003-.056.003-.111 0-.166v-34.79a2.19 2.19 0 0 0-2.2-2.178H14.72a2.225 2.225 0 0 0-1.334.44L.609 24.795l-.023.018-.067.054-.055.05-.05.054a.772.772 0 0 0-.057.06l-.042.052a.58.58 0 0 0-.05.068.524.524 0 0 0-.038.056l-.042.069-.035.066a.385.385 0 0 0-.032.067l-.031.076a1.48 1.48 0 0 0-.063.21c0 .027 0 .054-.017.08-.016.028 0 .048 0 .071V60.823A2.19 2.19 0 0 0 2.207 63h35.119c.073 0 .142 0 .209-.017h.05c.071-.012.141-.029.21-.051l.03-.01c.066-.023.13-.05.194-.082l.027-.012c.068-.036.133-.077.195-.122l.019-.013 12.957-9.688a.146.146 0 0 1 .021-.017l.094-.08.04-.036c.044-.045.082-.087.118-.128zM38.89 26.81l9.816-7.34v31.52l-9.816 7.33V26.81zm-23.854-8.916h30.555l-8.797 6.577H6.239l8.797-6.577zM3.122 27.59h32.626v32.3H3.122v-32.3z"/>
        <path d="M16.47 37.786a2.206 2.206 0 0 0-2.512-1.596 2.194 2.194 0 0 0-1.818 2.348 2.2 2.2 0 0 0 2.766 1.927 2.19 2.19 0 0 0 1.563-2.677v-.002zM25.292 37.783a2.206 2.206 0 0 0-2.512-1.593 2.194 2.194 0 0 0-1.817 2.347 2.2 2.2 0 0 0 2.764 1.928 2.202 2.202 0 0 0 1.342-1.018c.293-.502.374-1.1.223-1.662v-.002zM17.247 50.948c-1.9 0-3.789-.296-5.594-.879a.926.926 0 0 1-.567-1.193.954.954 0 0 1 1.217-.556c1.617.514 3.307.772 5.007.767 3.622-.014 6.497-1.288 8.547-3.783a.957.957 0 0 1 1.657.227.917.917 0 0 1-.182.94c-2.405 2.926-5.89 4.475-10.081 4.477h-.004zM81.87 39.605c.564.728.846 1.64.846 2.732 0 1.508-.529 2.68-1.587 3.52-1.058.839-2.535 1.257-4.43 1.254h-6.475a1.303 1.303 0 0 1-.95-.343 1.21 1.21 0 0 1-.342-.907V30.827a1.21 1.21 0 0 1 .342-.907c.258-.234.602-.355.953-.335h6.195c1.845 0 3.288.401 4.328 1.205 1.041.803 1.562 1.925 1.562 3.366a3.956 3.956 0 0 1-.75 2.41 4.418 4.418 0 0 1-2.094 1.515c.952.23 1.798.767 2.402 1.524zM71.502 37.17h4.52c2.505 0 3.757-.927 3.757-2.782 0-.928-.309-1.618-.926-2.07-.618-.453-1.563-.674-2.836-.663h-4.519l.004 5.515zm7.795 7.18c.61-.464.914-1.184.914-2.162 0-.977-.309-1.718-.927-2.223-.618-.489-1.57-.733-2.856-.733h-4.93v5.813h4.926c1.299 0 2.255-.232 2.869-.695h.004zM92.659 46.55a7.366 7.366 0 0 1-2.867-3.133c-.673-1.353-1.01-2.949-1.01-4.787s.332-3.446.998-4.824a7.171 7.171 0 0 1 2.866-3.133c1.246-.727 2.711-1.09 4.395-1.09 1.684 0 3.157.363 4.42 1.09a7.171 7.171 0 0 1 2.866 3.133c.666 1.361.998 2.963.998 4.803 0 1.84-.332 3.442-.998 4.804a7.249 7.249 0 0 1-2.866 3.145c-1.246.735-2.72 1.103-4.42 1.103-1.7 0-3.161-.37-4.382-1.111zm8.55-2.807c.993-1.203 1.49-2.916 1.49-5.138s-.492-3.93-1.474-5.125c-.982-1.195-2.375-1.792-4.18-1.792-1.768 0-3.144.597-4.13 1.792-.984 1.194-1.476 2.903-1.473 5.125 0 2.228.491 3.94 1.474 5.138.982 1.197 2.358 1.799 4.13 1.804 1.781 0 3.169-.601 4.162-1.804zM124.626 45.94a1.107 1.107 0 0 1-.37.817c-.22.226-.523.354-.839.356a1.122 1.122 0 0 1-.888-.441l-5.344-6.695-5.377 6.695a1.1 1.1 0 0 1-.863.441 1.179 1.179 0 0 1-.838-.356 1.107 1.107 0 0 1-.37-.817c.007-.28.111-.549.296-.76l5.672-6.99-5.401-6.67a1.08 1.08 0 0 1-.296-.76 1.23 1.23 0 0 1 1.184-1.177c.349.001.677.165.888.441l5.105 6.4 5.106-6.4c.205-.282.537-.447.888-.441.316.001.618.13.838.355.234.209.368.506.37.818a1.09 1.09 0 0 1-.32.76l-5.402 6.67 5.65 6.994c.199.204.31.476.31.76zM131.619 46.767a1.2 1.2 0 0 1-.374-.931V30.861a1.21 1.21 0 0 1 .374-.92c.26-.24.619-.37.988-.355a1.36 1.36 0 0 1 1.015.344c.267.245.404.585.374.93v14.976c.02.342-.11.677-.36.931a1.436 1.436 0 0 1-1.029.343 1.405 1.405 0 0 1-.988-.343zM65.122 12.6c-.45 0-.849-.277-.994-.69-1.537-4.37-4-7.33-7.324-8.798C51.47.758 45.656 3.005 45.6 3.027c-.35.154-.76.11-1.067-.114a1.001 1.001 0 0 1-.406-.962c.057-.368.317-.677.679-.805.27-.107 6.72-2.598 12.87.116 3.87 1.708 6.72 5.083 8.44 9.994a.99.99 0 0 1-.14.92 1.061 1.061 0 0 1-.854.424z"/>
        <path d="M60.71 14.791c-.448 0-.846-.281-.99-.699-1.088-3.15-2.823-5.279-5.16-6.329-3.757-1.688-7.858-.074-7.9-.057a1.06 1.06 0 0 1-1.037-.14 1.024 1.024 0 0 1 .246-1.77c.21-.082 4.989-1.963 9.559.09 2.881 1.296 4.993 3.832 6.278 7.542.108.315.056.663-.14.933-.197.27-.515.43-.852.43h-.004z"/>
        <path d="M56.294 16.435a1.06 1.06 0 0 1-1.005-.714c-.589-1.69-1.511-2.827-2.744-3.377-1.964-.879-4.187-.035-4.208-.027-.352.14-.753.087-1.053-.141a1.031 1.031 0 0 1 .25-1.787c.123-.05 3.07-1.201 5.893.06 1.788.806 3.09 2.357 3.866 4.61a1.036 1.036 0 0 1-.663 1.32 1.033 1.033 0 0 1-.336.056z"/>
    </g>
</svg>
