<svg xmlns="http://www.w3.org/2000/svg" width="644" height="305" viewBox="0 0 644 305">
    <g fill="none" fill-rule="evenodd">
        <g fill="#2E48DC">
            <path d="M379.96 215.382c2.88-2.24 4.32-5.72 4.32-10.44 0-4.8-1.461-8.38-4.38-10.74-2.921-2.36-7.421-3.54-13.5-3.54h-23.28v28.08h23.28c6.16 0 10.68-1.12 13.56-3.36zm-36.84-34.68h21.36c11.839 0 17.76-4.48 17.76-13.44 0-4.48-1.461-7.8-4.38-9.96-2.921-2.16-7.38-3.24-13.38-3.24h-21.36v26.64zm49.02 11.76c2.679 3.522 4.02 7.92 4.02 13.2 0 7.28-2.501 12.942-7.5 16.98-5 4.04-11.981 6.06-20.94 6.06h-30.6c-1.92 0-3.42-.54-4.5-1.62s-1.62-2.54-1.62-4.38v-72.6c0-1.84.54-3.3 1.62-4.38s2.58-1.62 4.5-1.62h29.28c8.719 0 15.54 1.94 20.46 5.82 4.92 3.88 7.38 9.3 7.38 16.26 0 4.48-1.181 8.36-3.54 11.64-2.361 3.282-5.66 5.72-9.9 7.32 4.879 1.36 8.659 3.8 11.34 7.32zM485.32 210.942c4.718-5.76 7.08-13.96 7.08-24.6s-2.34-18.82-7.02-24.54c-4.68-5.72-11.302-8.58-19.86-8.58-8.4 0-14.94 2.86-19.62 8.58-4.68 5.72-7.02 13.9-7.02 24.54 0 10.64 2.34 18.84 7.02 24.6 4.68 5.76 11.22 8.64 19.62 8.64 8.478 0 15.078-2.88 19.8-8.64m-40.62 13.44c-5.88-3.52-10.422-8.52-13.62-15-3.2-6.48-4.8-14.12-4.8-22.92 0-8.88 1.578-16.58 4.74-23.1 3.158-6.52 7.698-11.52 13.62-15 5.918-3.48 12.878-5.22 20.88-5.22 8.078 0 15.078 1.74 21 5.22 5.918 3.48 10.458 8.48 13.62 15 3.158 6.52 4.74 14.18 4.74 22.98s-1.582 16.46-4.74 22.98c-3.162 6.52-7.702 11.54-13.62 15.06-5.922 3.52-12.922 5.28-21 5.28-8.002 0-14.94-1.76-20.82-5.28M601.12 223.542c0 1.52-.6 2.86-1.8 4.02-1.2 1.159-2.561 1.74-4.08 1.74-1.68 0-3.12-.72-4.32-2.16l-26.04-32.76-26.16 32.76c-1.2 1.44-2.601 2.16-4.2 2.16-1.521 0-2.88-.581-4.08-1.74-1.2-1.16-1.8-2.5-1.8-4.02 0-1.28.48-2.52 1.44-3.72l27.6-34.2-26.28-32.64c-.96-1.04-1.44-2.28-1.44-3.72 0-1.52.579-2.86 1.74-4.02 1.159-1.16 2.5-1.74 4.02-1.74 1.68 0 3.12.72 4.32 2.16l24.84 31.32 24.84-31.32c1.119-1.44 2.559-2.16 4.32-2.16 1.519 0 2.88.58 4.08 1.74 1.2 1.16 1.8 2.5 1.8 4.02 0 1.36-.521 2.6-1.56 3.72l-26.28 32.64 27.48 34.2c1.039 1.12 1.56 2.36 1.56 3.72M632.438 227.622c-1.12-1.12-1.68-2.64-1.68-4.56v-73.32c0-1.84.56-3.34 1.68-4.5 1.12-1.16 2.6-1.74 4.44-1.74 1.92 0 3.44.56 4.56 1.68 1.12 1.12 1.68 2.64 1.68 4.56v73.32c0 1.92-.54 3.44-1.62 4.56-1.08 1.119-2.62 1.68-4.62 1.68-1.84 0-3.32-.561-4.44-1.68"/>
        </g>
        <path fill="#FFC441" d="M15.648 289.167h155.756V133.411H15.648v155.756zm56.881-202.48h145.867l-42.006 31.724H30.523l42.006-31.724zm113.875 42.959L233.27 94.25v151.958l-46.866 35.396V129.646zM246.56 254.71c.05-.06.092-.124.139-.186.117-.151.231-.304.337-.464.058-.088.109-.179.163-.269.086-.143.169-.288.246-.438a7.643 7.643 0 0 0 .335-.759c.031-.086.064-.17.093-.257.061-.18.112-.364.16-.55.019-.075.041-.15.058-.227a7.33 7.33 0 0 0 .105-.616c.008-.063.022-.126.029-.189a7.81 7.81 0 0 0 .045-.799l.001-.021-.001-.006V82.187c0-5.79-4.71-10.5-10.5-10.5H71.02c-2.272 0-4.52.754-6.328 2.121L3.628 119.927c-.039.029-.074.063-.112.093a9.856 9.856 0 0 0-.576.501 7.398 7.398 0 0 0-.247.254c-.09.095-.18.192-.265.291a8.004 8.004 0 0 0-.198.249 7.653 7.653 0 0 0-.247.33c-.061.089-.117.18-.174.271-.07.112-.141.223-.206.338-.058.104-.11.211-.163.319a6.72 6.72 0 0 0-.155.32c-.053.121-.1.246-.147.37-.037.1-.076.199-.109.3-.043.13-.08.264-.116.397-.027.102-.055.204-.078.307a7.029 7.029 0 0 0-.074.389c-.02.115-.039.231-.053.347a7.022 7.022 0 0 0-.032.356c-.01.135-.018.27-.02.406-.001.049-.008.097-.008.146v167.756c0 5.79 4.71 10.5 10.5 10.5h167.753l.008.001.028-.002a7.569 7.569 0 0 0 1.017-.081 7.468 7.468 0 0 0 1.252-.281c.047-.015.092-.035.139-.051.323-.111.635-.243.936-.396.041-.02.082-.037.122-.058.327-.174.637-.373.933-.591.029-.021.06-.034.088-.056l61.866-46.724c.034-.026.063-.056.096-.082a7.49 7.49 0 0 0 .451-.384c.062-.057.128-.113.188-.171.188-.185.367-.378.535-.581z"/>
        <path fill="#FFC441" d="M80.594 184.238a10.566 10.566 0 0 0-4.947-6.464 10.57 10.57 0 0 0-8.07-1.073c-5.666 1.51-9.046 7.35-7.536 13.016 1.267 4.752 5.578 7.897 10.279 7.897.904 0 1.823-.116 2.736-.36a10.56 10.56 0 0 0 6.465-4.947 10.563 10.563 0 0 0 1.073-8.07M121.836 184.238a10.559 10.559 0 0 0-4.947-6.464 10.567 10.567 0 0 0-8.069-1.074c-5.666 1.511-9.047 7.35-7.537 13.017 1.267 4.752 5.578 7.896 10.28 7.896.903 0 1.822-.116 2.735-.359a10.568 10.568 0 0 0 6.465-4.947 10.568 10.568 0 0 0 1.073-8.069M83.844 246.332c-14.73 0-26.053-4.082-26.528-4.256a4.5 4.5 0 0 1 3.085-8.454c.104.038 10.503 3.772 23.747 3.71 17.177-.075 30.816-6.233 40.537-18.305a4.5 4.5 0 1 1 7.01 5.645c-11.405 14.16-27.94 21.652-47.817 21.66h-.034z"/>
        <path fill="#2E48DC" d="M313.038 61.983a5.002 5.002 0 0 1-4.733-3.392c-7.313-21.503-19.048-36.065-34.879-43.281-25.406-11.58-53.085-.53-53.36-.416a5 5 0 1 1-3.78-9.258c1.291-.53 31.995-12.776 61.287.575 18.44 8.404 31.964 24.944 40.2 49.16a4.998 4.998 0 0 1-4.735 6.612"/>
        <path fill="#2E48DC" d="M291.981 72.155a5.002 5.002 0 0 1-4.733-3.392c-5.196-15.278-13.492-25.606-24.658-30.695-17.957-8.185-37.555-.363-37.75-.282a4.998 4.998 0 0 1-6.52-2.738 4.999 4.999 0 0 1 2.74-6.52c.962-.393 23.834-9.517 45.678.44 13.773 6.278 23.86 18.583 29.977 36.576a4.998 4.998 0 0 1-4.734 6.61"/>
        <path fill="#2E48DC" d="M269.947 79.431a5.002 5.002 0 0 1-4.733-3.391c-2.763-8.123-7.104-13.58-12.905-16.225-9.246-4.213-19.7-.168-19.805-.127a4.998 4.998 0 0 1-6.519-2.738 4.999 4.999 0 0 1 2.74-6.519c.582-.238 14.45-5.77 27.731.285 8.408 3.832 14.54 11.27 18.225 22.104a4.998 4.998 0 0 1-4.734 6.612"/>
    </g>
</svg>
