<svg xmlns="http://www.w3.org/2000/svg" viewBox="0 0 249.29 392.58"><defs><style>.cls-1{fill:#fff;}</style></defs><title>illu-boxi-fleurs</title><g id="Calque_2" data-name="Calque 2"><g id="Calque_1-2" data-name="Calque 1"><path class="cls-1" d="M249.29,338.34V170.6a10.51,10.51,0,0,0-10.5-10.5H220.32c-1.14,5.18-3.73,9.89-5.62,15h4.72l-42,31.73H31.55l4.06-3.07c-2.91-4.55-3.19-10.4-4-15.79l-27,20.37-.11.1a3.88,3.88,0,0,0-.31.26l-.27.24-.24.25-.27.29-.2.25c-.08.11-.17.22-.24.33l-.18.27a3.79,3.79,0,0,0-.2.34c-.06.1-.11.21-.17.32l-.15.32-.15.37-.11.3c0,.13-.08.26-.11.39s-.06.21-.08.31-.05.26-.08.39,0,.23-.05.35l0,.35c0,.14,0,.27,0,.41s0,.1,0,.15V382.08a10.51,10.51,0,0,0,10.5,10.5H180a6.9,6.9,0,0,0,1-.08l.24,0a8.26,8.26,0,0,0,1-.24l.14-.05a7.66,7.66,0,0,0,.93-.4l.13-.06a7.65,7.65,0,0,0,.93-.59l.09-.05,61.86-46.73a.39.39,0,0,0,.1-.08l.45-.38.19-.17a5.88,5.88,0,0,0,.53-.59l.14-.18c.12-.15.23-.31.34-.47a2.26,2.26,0,0,0,.16-.26l.25-.44c0-.09.09-.18.13-.28s.14-.32.2-.48.07-.17.1-.26.11-.36.16-.55,0-.15.05-.22.08-.41.11-.62l0-.19a7,7,0,0,0,0-.8v0Zm-76.86,39.24H16.67V221.83H172.43Zm61.86-43L187.43,370v-152l46.86-35.4Z"/><path class="cls-1" d="M81.62,272.65a10.64,10.64,0,0,0-20.56,5.48,10.63,10.63,0,0,0,13,7.54,10.65,10.65,0,0,0,7.54-13Z"/><path class="cls-1" d="M122.86,272.65A10.63,10.63,0,1,0,112.59,286a10.72,10.72,0,0,0,2.73-.36,10.63,10.63,0,0,0,7.54-13Z"/><path class="cls-1" d="M84.87,334.75a84.47,84.47,0,0,1-26.53-4.26A4.5,4.5,0,0,1,61.43,322h0a76.54,76.54,0,0,0,23.74,3.71c17.18-.08,30.82-6.24,40.54-18.31a4.5,4.5,0,0,1,7,5.65c-11.41,14.16-27.94,21.65-47.82,21.66Z"/><path class="cls-1" d="M239.57,123.58c0-7-4.6-13.27-11.93-16.54a23.67,23.67,0,0,0,1.39-5.6,17.41,17.41,0,0,0-4.69-14.64c-3.68-3.68-8.87-5.34-14.64-4.69-.25,0-.5.09-.75.12,4.47-5.08,13-13.1,29.27-24.26A3,3,0,0,0,234.83,53c-19,13.06-28.09,22.15-32.44,27.7a19.45,19.45,0,0,0-7.59-7.14c2.86-5.86,14.18-26.68,40.1-49.21A3,3,0,0,0,233,19.13h-.13c-2.35,0-27.61.54-54.14,22.24,3.61-6.51,11.92-18.44,30.64-36.2A3,3,0,1,0,205.21.83c-26.39,25-33,39.22-34.58,43.73a23.47,23.47,0,0,0-8.69-6.29c3.07-8,2-16.47-3.44-22S144.35,9.8,136.35,13C132.85,5,126.13,0,118.55,0s-14.35,5-17.84,13C92.77,10,84.24,11,78.76,16.49s-6.51,14.14-3.35,22.15a22.41,22.41,0,0,0-10.58,9.1C37.45,13.73,5.5.77,4.1.21A3,3,0,0,0,1,5.25C28,28.66,40.19,66.24,42.68,74.71A19.5,19.5,0,0,0,38,79.23c-3.3-6.71-11.72-19.82-33-40A3,3,0,0,0,.94,43.6C23.28,64.78,30.79,77.68,33.19,83c-6.66-1.8-13.46-.55-18,4-5.1,5.11-6.07,13-3.23,20.42C4.67,110.67.1,116.89.1,123.9S4.7,137.17,12,140.44a23.55,23.55,0,0,0-1.39,5.6c-.65,5.75,1,11,4.7,14.63a16.1,16.1,0,0,0,7.48,4.17l10.12,41h6.17l-10-40.42c.28,0,.56,0,.84,0a23.3,23.3,0,0,0,5.79-1.45c3.29,7.27,9.51,11.83,16.52,11.83,6.19,0,11.74-3.58,15.23-9.43a61.88,61.88,0,0,0,8.78,3.88,17.39,17.39,0,0,0,17.95,18.73,24.41,24.41,0,0,0,8.86-1.77c3.45,7.81,10.06,12.73,17.53,12.73s14.12-5,17.56-12.82a24.26,24.26,0,0,0,8.65,1.69,18.09,18.09,0,0,0,12.09-4.41q6.39.48,13.35.89l-5.3,20.6h6.19L179,183.2a3,3,0,0,0-2.74-3.74c-4-.22-7.83-.46-11.56-.71a114.49,114.49,0,0,0,14.87-4.95c.1,0,.16-.12.25-.16a16.2,16.2,0,0,0,7.92,2.11c7,0,13.28-4.62,16.55-11.95a23,23,0,0,0,8,1.52,20,20,0,0,0,2.2-.19l-3.74,15.27,7.72-5.83L221.08,163a15.62,15.62,0,0,0,3.41-2.51c3.69-3.69,5.35-8.88,4.7-14.64a23.77,23.77,0,0,0-1.46-5.79C235,136.81,239.57,130.59,239.57,123.58ZM210.38,88.06c3.92-.44,7.36.61,9.72,3a11.5,11.5,0,0,1,3,9.72,19.85,19.85,0,0,1-5.9,11.61c-3.74,3.74-11.67,6.18-18.24,7.32a12.09,12.09,0,0,0-7.5-7.39c1.13-6.6,3.57-14.58,7.33-18.35A19.9,19.9,0,0,1,210.38,88.06Zm-45.65,28.67-.14,0a17.65,17.65,0,0,0-5-11.46,17.27,17.27,0,0,0-9.05-4.7,16.85,16.85,0,0,0,12.6-12.41,19.42,19.42,0,0,1,13.05,6c3.74,3.75,6.17,11.68,7.32,18.25a12.13,12.13,0,0,0-7.39,7.48A56.11,56.11,0,0,1,164.73,116.73Zm2.19,7.12c-1.09.34-2.2.71-3.3,1.14.2-.7.38-1.39.52-2.08C165.08,123.25,166,123.57,166.92,123.85Zm-90.71-7.92a52.82,52.82,0,0,1-12.72,3.73A12.11,12.11,0,0,0,56,112.3c1.14-6.61,3.57-14.58,7.34-18.35a20,20,0,0,1,11.11-5.79,17.21,17.21,0,0,0,4.5,8.06,17.55,17.55,0,0,0,9.71,4.85,17.19,17.19,0,0,0-7.5,4.34A17.47,17.47,0,0,0,76.21,115.93Zm.88,9.24c-1.45-.59-2.92-1.1-4.36-1.54,1.23-.37,2.47-.79,3.71-1.27A23.29,23.29,0,0,0,77.09,125.17Zm-18.83-1.43a6.15,6.15,0,1,1-6.15-6.15A6.15,6.15,0,0,1,58.26,123.74Zm72.64-35.1c-4.16-4.15-6.83-13-8.06-20.18A12.88,12.88,0,0,0,131,60.19c7.25,1.23,16.12,3.9,20.3,8.08,7.37,7.37,8.79,17.93,3.17,23.55-2.63,2.62-6.43,3.8-10.78,3.31A21.88,21.88,0,0,1,130.9,88.64Zm10.5,12.18a25.55,25.55,0,0,0-3.59,1.11,24.55,24.55,0,0,0-1.3-2.5A26.08,26.08,0,0,0,141.4,100.82ZM120.29,95.2c5.14,0,9.76,3.69,12.2,9.53a29.59,29.59,0,0,0-4.44,3.64c-3.76,3.75-6.18,9.57-7.71,14.85-1.54-5.23-3.94-11-7.66-14.68a29.88,29.88,0,0,0-4.62-3.77C110.5,98.91,115.13,95.2,120.29,95.2Zm-7.66-4.1c2.91-3.76,4.89-8.73,6.2-13.31a43.3,43.3,0,0,0,5.24,11.9,16,16,0,0,0-11.44,1.41Zm6.09-27.89a6.94,6.94,0,1,1,6.94-6.94A6.95,6.95,0,0,1,118.72,63.21Zm-3.92,5.31c-1.23,7.27-3.9,16.12-8.08,20.3C99.35,96.18,88.79,97.61,83.17,92S79,75.81,86.34,68.44c4.16-4.15,13-6.83,20.19-8A12.9,12.9,0,0,0,114.8,68.52Zm-9.44,28.9a24.86,24.86,0,0,0-2.63,4.57,24.87,24.87,0,0,0-5-1.35A27.26,27.26,0,0,0,105.36,97.42Zm-20,12.23a12.45,12.45,0,0,1,10.54-3.23,21.46,21.46,0,0,1,12.52,6.35c4.07,4.07,6.69,12.69,7.9,19.77a12.71,12.71,0,0,0-8,8.09c-7.12-1.2-15.79-3.82-19.88-7.91a21.46,21.46,0,0,1-6.35-12.52A12.51,12.51,0,0,1,85.39,109.65Zm35.06,28.13a6.77,6.77,0,1,1-6.76,6.77A6.78,6.78,0,0,1,120.45,137.78Zm3.92-5.3c1.2-7.12,3.83-15.79,7.91-19.88,7.23-7.22,17.58-8.62,23.07-3.12s4.1,15.85-3.11,23.07c-4.08,4.07-12.69,6.69-19.77,7.9A12.75,12.75,0,0,0,124.37,132.48Zm63.19-14.89a6.15,6.15,0,1,1-6.15,6.15A6.16,6.16,0,0,1,187.56,117.59Zm11-31.21a27.81,27.81,0,0,0-4.06,3.34c-3.39,3.39-5.63,8.57-7.08,13.36-1.46-4.74-3.68-9.85-7-13.2a28.26,28.26,0,0,0-4.23-3.47c2.27-5.33,6.51-8.7,11.21-8.7S196.33,81.06,198.6,86.38ZM175,56.09A16.36,16.36,0,0,0,174.7,53C193.51,34.44,213.06,28.21,224,26.14c-23.27,22-32.92,41.05-35.07,45.73-.52-.05-1-.14-1.57-.14-7,0-13.28,4.61-16.55,11.94a23.26,23.26,0,0,0-7.06-1.51A25.09,25.09,0,0,0,162,73.89C170,70.39,175,63.68,175,56.09Zm-15.81-12.5c6,2.48,9.83,7.23,9.83,12.5s-3.8,10-9.78,12.5A29.8,29.8,0,0,0,155.51,64c-3.86-3.86-9.86-6.33-15.27-7.88,5.36-1.56,11.28-4,15.09-7.83A30.32,30.32,0,0,0,159.17,43.59Zm-4.9-23.05c5.62,5.62,4.19,16.18-3.17,23.55-4.16,4.16-13,6.83-20.19,8.06A12.88,12.88,0,0,0,122.64,44c1.23-7.26,3.9-16.12,8.08-20.3C138.09,16.34,148.65,14.93,154.27,20.54ZM118.55,6c5.27,0,10,3.79,12.49,9.78a29.8,29.8,0,0,0-4.55,3.71c-3.86,3.86-6.32,9.86-7.88,15.27-1.56-5.37-4-11.28-7.83-15.1A29.8,29.8,0,0,0,106,15.82C108.53,9.81,113.27,6,118.55,6ZM83,20.72c5.62-5.62,16.18-4.2,23.55,3.17,4.15,4.15,6.83,13,8.06,20.19a12.88,12.88,0,0,0-8.14,8.26c-7.26-1.22-16.12-3.89-20.3-8.08C78.81,36.9,77.38,26.34,83,20.72ZM78.23,44a29.69,29.69,0,0,0,3.71,4.55c3.85,3.85,9.85,6.32,15.26,7.88-5.36,1.56-11.28,4-15.09,7.83a30.25,30.25,0,0,0-3.84,4.73c-6-2.48-9.82-7.22-9.82-12.5S72.24,46.44,78.23,44Zm-60-29.46A168.17,168.17,0,0,1,62.62,54.65a17.76,17.76,0,0,0-.16,1.79c0,7.61,5,14.35,13,17.83a24.9,24.9,0,0,0-1.67,7.91,23.62,23.62,0,0,0-5.36,1.38C65.18,76.29,59,71.73,52,71.73a15.62,15.62,0,0,0-3.75.5C45.67,63.66,36.76,37.05,18.25,14.49ZM52,77.71c4.69,0,8.92,3.35,11.2,8.67a27.89,27.89,0,0,0-4.07,3.34c-3.39,3.39-5.63,8.57-7.08,13.36-1.46-4.74-3.68-9.85-7-13.2a27.45,27.45,0,0,0-4.24-3.46C43,81.08,47.25,77.71,52,77.71ZM19.41,91.2c5.07-5.07,14.65-3.77,21.33,2.91,3.75,3.75,6.18,11.68,7.32,18.25a12.11,12.11,0,0,0-7.39,7.5c-6.61-1.13-14.57-3.56-18.34-7.33C15.64,105.84,14.34,96.27,19.41,91.2Zm-4.62,43.92c-5.33-2.28-8.7-6.52-8.7-11.22s3.35-8.93,8.66-11.21a27.74,27.74,0,0,0,3.35,4.07c3.39,3.4,8.56,5.64,13.36,7.09-4.74,1.45-9.85,3.68-13.21,7A27.77,27.77,0,0,0,14.79,135.12Zm14.5,24.3a11.57,11.57,0,0,1-9.72-3,11.52,11.52,0,0,1-3-9.72,19.91,19.91,0,0,1,5.9-11.61c3.75-3.74,11.69-6.18,18.24-7.31a12.11,12.11,0,0,0,7.51,7.38c-1.14,6.59-3.57,14.58-7.34,18.34A19.85,19.85,0,0,1,29.29,159.42Zm23,10.34c-4.69,0-8.92-3.35-11.2-8.66a27.81,27.81,0,0,0,4.06-3.34c3.4-3.39,5.63-8.57,7.09-13.37,1.45,4.75,3.68,9.85,7,13.21a28.15,28.15,0,0,0,4.23,3.47C61.21,166.4,57,169.76,52.27,169.76Zm11.21-16.39c-3.74-3.75-6.17-11.68-7.32-18.25a12.09,12.09,0,0,0,7.39-7.5A59.14,59.14,0,0,1,73,130c-4.93,3.69-7.9,8.92-7.9,14.69a18.14,18.14,0,0,0,6.7,13.79A21.09,21.09,0,0,1,63.48,153.37ZM80.68,157c-5.87-2.44-9.58-7.07-9.58-12.23s3.69-9.76,9.53-12.21A29.82,29.82,0,0,0,84.27,137c3.75,3.76,9.57,6.18,14.85,7.71-5.23,1.54-11,3.94-14.68,7.66A29.56,29.56,0,0,0,80.68,157Zm4.88,22.67c-5.5-5.5-4.11-15.85,3.11-23.07,4.07-4.07,12.69-6.69,19.77-7.9a12.68,12.68,0,0,0,8.1,8c-1.2,7.13-3.82,15.79-7.92,19.88C101.4,183.72,91.06,185.12,85.56,179.62Zm35.06,14.29c-5.13,0-9.76-3.7-12.2-9.53a30.1,30.1,0,0,0,4.44-3.64c3.76-3.76,6.17-9.57,7.71-14.85,1.54,5.22,3.94,11,7.66,14.68a29,29,0,0,0,4.62,3.76C130.4,190.19,125.78,193.91,120.62,193.91Zm34.9-14.46c-5.5,5.5-15.85,4.1-23.06-3.12-4.07-4.07-6.7-12.71-7.9-19.77a12.7,12.7,0,0,0,8-8.1c7.11,1.21,15.79,3.83,19.88,7.92C159.62,163.6,161,174,155.52,179.45Zm1.12-27.3c-3.76-3.75-9.58-6.17-14.86-7.71,5.24-1.53,11-3.94,14.69-7.66a29,29,0,0,0,3.75-4.62c5.79,2.43,9.59,7.15,9.59,12.22s-3.7,9.77-9.54,12.21A29.52,29.52,0,0,0,156.64,152.15Zm8.1,20.37a22.85,22.85,0,0,0-.57-7.08,23.08,23.08,0,0,0,7-1.55,23,23,0,0,0,3.4,5.43A103.65,103.65,0,0,1,164.74,172.52Zm4-14.09a18.23,18.23,0,0,0,7.05-14.05c0-5.71-2.91-10.89-7.75-14.58a58,58,0,0,1,8.14-2,12.12,12.12,0,0,0,7.49,7.36c-1.13,6.59-3.56,14.58-7.33,18.34A21.14,21.14,0,0,1,168.75,158.43Zm19,11.33c-4.69,0-8.92-3.35-11.2-8.65a28.43,28.43,0,0,0,4.06-3.35c3.39-3.39,5.63-8.57,7.08-13.37,1.45,4.75,3.68,9.85,7,13.21a27.45,27.45,0,0,0,4.23,3.47C196.66,166.4,192.42,169.76,187.72,169.76Zm32.54-13.48c-5.07,5.08-14.64,3.77-21.33-2.92-3.75-3.75-6.18-11.67-7.32-18.24a12.11,12.11,0,0,0,7.39-7.5c6.6,1.13,14.57,3.56,18.34,7.33a19.91,19.91,0,0,1,5.9,11.61A11.53,11.53,0,0,1,220.26,156.28Zm4.66-21.5a27.81,27.81,0,0,0-3.34-4.06c-3.4-3.39-8.57-5.63-13.37-7.09,4.75-1.45,9.85-3.68,13.21-7a28.27,28.27,0,0,0,3.46-4.24c5.34,2.28,8.7,6.52,8.7,11.22S230.23,132.51,224.92,134.78Z"/></g></g></svg>